<?xml version="1.0" encoding="utf-8"?><svg viewBox="0 0 502.66 502.66" xmlns="http://www.w3.org/2000/svg" xmlns:xlink="http://www.w3.org/1999/xlink"><style>:root>svg{display:none}:root>svg:target{display:block}</style><svg viewBox="0 0 80 80" id="feature1" xmlns="http://www.w3.org/2000/svg"><path d="M46.25 46.25v11.596A2.49 2.49 0 0147.5 60c0 .922-.506 1.72-1.25 2.154V72.5h12.5V46.25h-12.5zm-10 7.5h-22.5v-12.5h22.5v12.5zM47.193 18.75a4.05 4.05 0 00-3.937 3.074l-.155.62-1.59-.454-2.809-9.832-2.403.687 2.381 8.336-8.336-2.381-.688 2.404 9.833 2.808.454 1.59-.62.155a4.048 4.048 0 00-3.073 3.935 4.062 4.062 0 004.057 4.058 3.447 3.447 0 003.31-4.389L42.32 24.82l4.544 1.299a3.446 3.446 0 004.386-3.311 4.062 4.062 0 00-4.057-4.058zm-6.886 12.5a1.56 1.56 0 01-1.557-1.558c0-.716.485-1.337 1.18-1.51l.7-.176.582 2.04a.943.943 0 01-.905 1.204zm7.242-7.536l-2.043-.584.175-.7a1.555 1.555 0 011.512-1.18 1.56 1.56 0 011.557 1.558c0 .606-.62 1.07-1.201.906z"/><path d="M76.25 28.75h-.82l3.51-11.699-.659-.526C65.97 6.674 50.505 1.25 34.74 1.25H21.25v11.006C9.74 14.285 2.23 18.705 1.856 18.93l-.892.536 3.482 9.285H3.75a2.503 2.503 0 00-2.5 2.5v2.5c0 1.379 1.121 2.5 2.5 2.5V63.19a4.99 4.99 0 00-2.5 4.311c0 .78.2 1.531.54 2.216a2.48 2.48 0 00-.54 1.534v7.5h75v-10c1.379 0 2.5-1.121 2.5-2.5v-17.5a2.49 2.49 0 00-1.021-2.005 4.95 4.95 0 001.021-2.995c0-1.843-1.012-3.438-2.5-4.305V36.25c1.379 0 2.5-1.121 2.5-2.5v-2.5c0-1.379-1.121-2.5-2.5-2.5zm-52.5-25h10.99c14.921 0 29.56 5.037 41.32 14.205L72.82 28.75h-4.07v-8.151l-.532-.374c-.21-.146-5.144-3.546-14.338-6.134C51.026 9.401 45.881 6.25 40 6.25c-4.671 0-8.876 1.992-11.844 5.159a65.598 65.598 0 00-4.406.456V3.75zM40 36.25c-7.581 0-13.75-6.169-13.75-13.75S32.42 8.75 40 8.75s13.75 6.169 13.75 13.75S47.581 36.25 40 36.25zm-27.849-7.5l-1.963-5.89c.847-.317 1.767-.64 2.748-.959l1.713 6.849H12.15zm5.075 0l-1.895-7.578a65.96 65.96 0 012.53-.656l1.832 8.234h-2.467zm5.027 0l-1.95-8.776a63.947 63.947 0 013.76-.635 16.164 16.164 0 00.94 9.411h-2.75zm43.997-4.718c-1.975-1.098-5.427-2.78-10.255-4.308a16.183 16.183 0 00-.676-2.595c5.871 1.868 9.611 3.988 10.931 4.803v2.1zm-10.004-1.598l.004.001v6.315h-1.254a16.164 16.164 0 001.254-6.25c0-.023-.004-.044-.004-.066zm2.504.897c.91.35 1.74.695 2.5 1.03v4.389h-2.5v-5.419zm5 2.212a35.049 35.049 0 012.5 1.39v1.817h-2.5v-3.207zM26.121 14.09c-.506.833-.938 1.71-1.29 2.632-9.235 1.118-16.475 4.013-20.083 5.71l-.698-1.86c2.659-1.394 10.948-5.31 22.071-6.482zM5.63 24.784a55.134 55.134 0 012.231-.999l1.655 4.965h-2.4L5.63 24.784zM3.75 31.25h22.58a16.309 16.309 0 001.972 2.5H3.751v-2.5zm1.684 33.904l.897-.313-.06-.948-.02-.143c0-1.379 1.12-2.5 2.5-2.5 1.052 0 1.995.678 2.345 1.684l.313.897.949-.061.142-.02c1.379 0 2.5 1.121 2.5 2.5s-1.121 2.5-2.5 2.5H4.091a2.492 2.492 0 01-.34-1.25c0-1.052.677-1.996 1.683-2.346zm26.632 0A2.495 2.495 0 0133.75 67.5c0 .444-.121.873-.341 1.25H25a2.503 2.503 0 01-2.5-2.5c0-1.379 1.121-2.5 2.456-2.5l1.134.081.313-.897a2.498 2.498 0 012.347-1.684c1.379 0 2.5 1.121 2.5 2.456l-.081 1.134.897.314zm-8.33-3.725C21.59 61.992 20 63.932 20 66.25c0 .915.265 1.761.695 2.5h-3.891a4.937 4.937 0 00.696-2.5 5.007 5.007 0 00-4.417-4.966 4.98 4.98 0 00-.953-1.19A3.762 3.762 0 0115 58.75c.938 0 1.84.36 2.543 1.013l.96.893.846-1.003a2.49 2.49 0 011.901-.903c1.379 0 2.5 1.121 2.5 2.5 0 .06-.011.119-.015.179zM33.75 76.25h-30v-5h30v5zm2.5-2.5h30v2.5h-30v-2.5zm25-2.5h-7.5v-2.5h5v-2.5h-5v-2.5h5v-2.5h-5v-2.5h5v-2.5h-5v-2.5h5v-2.5h-5v-5h-2.5v5h-5v2.5h5v2.5h-5v.23c-.392-.14-.81-.23-1.25-.23-.44 0-.857.09-1.25.23V43.75h17.5v27.5zM45 61.25c-.689 0-1.25-.561-1.25-1.25s.561-1.25 1.25-1.25 1.25.561 1.25 1.25-.561 1.25-1.25 1.25zm3.52-2.5h2.73v2.5h-2.73c.14-.392.23-.81.23-1.25 0-.44-.09-.858-.23-1.25zm-4.77 4.77c.393.14.81.23 1.25.23.44 0 .858-.09 1.25-.23v.23h5v2.5h-5v2.5h5v2.5h-7.5v-7.73zm27.5 2.73v-2.5h5.001v2.5h-5zm0-22.5c0-1.379 1.121-2.5 2.5-2.5s2.5 1.121 2.5 2.5-1.121 2.5-2.5 2.5a2.503 2.503 0 01-2.5-2.5zm5 5v2.5h-5v-2.5h5zm.001 11.415l-5-3.334v-1.995l5 3.334v1.995zM74.13 53.75h2.121v1.415L74.13 53.75zm-.758 7.5h-2.12v-1.415l2.12 1.415zm.38-22.5c-2.758 0-5 2.242-5 5a4.95 4.95 0 001.02 2.995 2.49 2.49 0 00-1.02 2.005v17.5c0 1.379 1.12 2.5 2.5 2.5h2.5v7.5h-5v-2.5c0-1.379-1.122-2.5-2.5-2.5h-2.5v-30h-22.5v30h-5a2.48 2.48 0 00-.54-1.534 4.98 4.98 0 00.54-2.216 4.99 4.99 0 00-2.535-4.333 5.008 5.008 0 00-4.966-4.417 4.947 4.947 0 00-2.794.876c-.678-1.957-2.52-3.376-4.706-3.376a4.953 4.953 0 00-2.932.966A6.183 6.183 0 0015 56.25a6.262 6.262 0 00-5.09 2.646 4.904 4.904 0 00-1.16-.146c-.912 0-1.762.254-2.5.682V36.25h25.13a16.13 16.13 0 008.62 2.5 16.13 16.13 0 008.621-2.5h25.13v2.5zm2.5-5H51.698a16.321 16.321 0 001.972-2.5h22.58v2.5z"/><path d="M23.75 41.25h2.5v12.5h-2.5v-12.5z"/></svg><svg viewBox="0 0 80 80" id="feature2" xmlns="http://www.w3.org/2000/svg"><path d="M67.5 71.25h-15a3.755 3.755 0 01-3.75-3.75 3.755 3.755 0 013.75-3.75h15a3.755 3.755 0 013.75 3.75 3.755 3.755 0 01-3.75 3.75zm-51.25-45h1.25v-1.742a8.422 8.422 0 012.733-6.21 4.36 4.36 0 004.126 2.952h11.596a4.049 4.049 0 003.879-2.891 8.42 8.42 0 012.666 6.148v1.743h1.25c1.038 0 1.976.421 2.655 1.102l1.023-2.556a18.411 18.411 0 001.322-6.866 18.466 18.466 0 00-6.458-14.039l-3.36-2.88-.742.371c-2.254 1.128-8.202 2.802-16.747 4.714-4.53 1.014-7.693 4.97-7.693 9.619v.018l-.445.444a6.971 6.971 0 00-2.055 4.962c0 1.082.256 2.167.74 3.137l1.564 3.127a3.734 3.734 0 012.696-1.153z"/><path d="M25 27.5c.689 0 1.25.561 1.25 1.25h2.5A3.755 3.755 0 0025 25a3.755 3.755 0 00-3.75 3.75h2.5c0-.689.561-1.25 1.25-1.25zm10 0c.689 0 1.25.561 1.25 1.25h2.5A3.755 3.755 0 0035 25a3.755 3.755 0 00-3.75 3.75h2.5c0-.689.561-1.25 1.25-1.25zm1.122 6.837l.063-.192-2.37-.791-.065.194A3.948 3.948 0 0130 36.25a3.948 3.948 0 01-3.75-2.704l-.063-.192-2.372.791.064.191A6.441 6.441 0 0030 38.75a6.442 6.442 0 006.122-4.413zm-4.369-24.081l5-3.75 1.5 2-5 3.75-1.5-2z"/><path d="M75.526 58.803a4.95 4.95 0 00.724-2.553c0-2.124-1.336-3.93-3.206-4.654.44-.702.706-1.526.706-2.415 0-2.3-1.72-4.25-4.004-4.535l-.412-.051a10.163 10.163 0 01-8.174-6.309l-.555-1.387-8.964 5.601a6.118 6.118 0 00-2.891 5.218c0 .763.155 1.496.414 2.18a13.641 13.641 0 00-1.775-.45l-6.57-1.16a5.006 5.006 0 01-4.063-4.102l-.339-2.035A13.816 13.816 0 0042.795 35h.955c2.758 0 5-2.242 5-5s-2.242-5-5-5v-.494a9.7 9.7 0 00-2.575-6.555c.035-.246.075-.491.075-.746 0-.817-.194-1.636-.559-2.369l-.822-1.646-2.236 1.119.822 1.646a2.798 2.798 0 01-2.5 4.045h-4.442c.252-.637.67-1.204 1.26-1.596l1.67-1.114-1.387-2.08-1.67 1.114A5.9 5.9 0 0028.891 20H26.25c0-1.956.935-3.826 2.5-5l2-1.5-1.5-2-2 1.5a8.791 8.791 0 00-3.496 6.939 3.112 3.112 0 01-2.504-3.048c0-1.576.753-3.081 2.014-4.026L25.75 11l-1.5-2-2.486 1.865a7.567 7.567 0 00-3.014 6.026c0 .353.041.694.104 1.028a9.697 9.697 0 00-2.604 6.587V25c-2.758 0-5 2.242-5 5s2.242 5 5 5h.955a13.815 13.815 0 006.378 7.151l-.34 2.035a5.008 5.008 0 01-4.062 4.102l-6.57 1.16A13.728 13.728 0 001.25 62.987V78.75h72.5c2.757 0 5-2.243 5-5V62.5c0-1.888-1.406-3.439-3.224-3.697zm-4.276-.053h-22.5a2.503 2.503 0 01-2.5-2.5c0-1.379 1.121-2.5 2.5-2.5h22.5c1.379 0 2.5 1.121 2.5 2.5s-1.121 2.5-2.5 2.5zM52.966 44.619l6.503-4.063a12.663 12.663 0 009.556 6.519l.412.051a2.073 2.073 0 011.813 2.055 2.071 2.071 0 01-2.07 2.069H53.954l-.206-.07a3.643 3.643 0 01-2.498-3.462c0-1.268.641-2.427 1.716-3.1zM46.25 30c0 1.379-1.121 2.5-2.5 2.5h-.239c.15-.813.239-1.645.239-2.5v-2.5c1.379 0 2.5 1.121 2.5 2.5zm-30 2.5a2.503 2.503 0 01-2.5-2.5c0-1.379 1.121-2.5 2.5-2.5V30c0 .855.089 1.688.239 2.5h-.239zm2.5-2.5v-5.494a7.18 7.18 0 011.285-4.086c1.029 1.259 2.575 2.08 4.324 2.08h11.596c1.653 0 3.113-.776 4.084-1.966a7.187 7.187 0 011.211 3.972V30c0 6.203-5.047 11.25-11.25 11.25S18.75 36.203 18.75 30zm6.959 14.596l.242-1.456a13.717 13.717 0 008.096 0l.243 1.456c.415 2.493 2.064 4.55 4.293 5.57a11.62 11.62 0 01-8.372 3.584h-.422a11.622 11.622 0 01-8.373-3.584c2.229-1.02 3.878-3.077 4.293-5.57zM41.92 76.25H13.75v-12.5h-2.5v12.5h-7.5V62.987c0-5.47 3.909-10.128 9.295-11.078l5.709-1.008c2.667 3.351 6.721 5.349 11.035 5.349h.422c4.314 0 8.368-1.998 11.035-5.35l5.229.922c-1.61.833-2.725 2.494-2.725 4.428 0 .936.275 1.804.724 2.553-1.818.258-3.224 1.81-3.224 3.697v11.25c0 .91.244 1.764.671 2.5zm34.329-2.5c0 1.379-1.121 2.5-2.5 2.5h-27.5a2.503 2.503 0 01-2.5-2.5V62.5c0-.69.561-1.25 1.25-1.25h30c.689 0 1.25.56 1.25 1.25v11.25z"/></svg><svg viewBox="0 0 78 78" id="feature3" xmlns="http://www.w3.org/2000/svg"><path d="M68.638 51.862A11.428 11.428 0 0165.25 43.7V21.862C65.25 9.939 55.563.25 43.638.25c-1.55 0-3.113.175-4.638.5a22.32 22.32 0 00-4.637-.5C22.438.25 12.75 9.938 12.75 21.863V43.7c0 3.087-1.2 5.987-3.387 8.162l-1.225 1.225 1.55.775a36.886 36.886 0 0016.45 3.888H29v-3.469h.039A14.974 14.974 0 0121.5 41.288v-7.5a1.9 1.9 0 01.05-.463l-.012.025A4.999 4.999 0 0124 24v-.075a9.98 9.98 0 015.525-8.938L31.5 14a14.709 14.709 0 007.688 7.075l1.062.425L41.5 14l4.463.738a9.677 9.677 0 015.212 2.687A9.632 9.632 0 0154 24.238V24a4.999 4.999 0 012.463 9.35l-.013-.025c.038.15.05.3.05.462v7.5a14.974 14.974 0 01-7.539 12.994h.04v3.469h2.862a36.886 36.886 0 0016.45-3.888l1.55-.775-1.225-1.225z"/><path d="M41.5 38.705A2.78 2.78 0 0139 40.25a2.78 2.78 0 01-2.5-1.545l-.13-.264-2.237 1.119.131.264A5.266 5.266 0 0039 42.75a5.265 5.265 0 004.737-2.928l.13-.263-2.235-1.12-.132.266z"/><path d="M65.655 62.008l-15.405-2.8V54.98a16.23 16.23 0 007.5-13.691v-7.292A6.266 6.266 0 0060.25 29c0-3.051-2.2-5.589-5.095-6.134a10.784 10.784 0 00-3.09-6.319 10.813 10.813 0 00-5.901-3.037l-5.69-.95-1.199 7.196a13.425 13.425 0 01-6.311-5.697l.592-.889a12.148 12.148 0 0110.129-5.42c2.411 0 4.746.706 6.754 2.045l.367.245 1.387-2.08-.368-.245a14.63 14.63 0 00-8.14-2.465 14.649 14.649 0 00-12.211 6.535l-.83 1.246-1.675.838c-3.515 1.756-5.787 5.146-6.145 9.001-2.885.551-5.074 3.086-5.074 6.13 0 1.976.941 3.826 2.5 4.998v7.292a16.23 16.23 0 007.5 13.691v4.227l-15.405 2.8A14.724 14.724 0 00.25 76.5v1.25h77.5V76.5a14.724 14.724 0 00-12.095-14.492zM27.75 45.684a16.242 16.242 0 002.5 1.987v5.87l-.269-.146c-.809-.436-1.54-.966-2.231-1.538v-6.173zm5 3.277c.811.34 1.641.64 2.5.844v6.428l-2.5-1.346v-5.925zm5 1.214c.416.033.83.074 1.25.074.42 0 .834-.041 1.25-.074v7.326a3.747 3.747 0 01-2.5 0v-7.326zm5-.37a16.244 16.244 0 002.5-.843v5.925l-2.5 1.346v-6.428zm5 3.735v-5.868a16.242 16.242 0 002.5-1.988v6.172c-.691.573-1.422 1.104-2.231 1.54l-.269.144zM50 42.251a13.818 13.818 0 01-11 5.499 13.82 13.82 0 01-11-5.499c-.01-.014-.019-.029-.03-.042l1.56-3.512a5.807 5.807 0 017.9-2.835l1.57.785 1.57-.785a5.807 5.807 0 017.9 2.835l1.56 3.512-.03.042zM36.057 59.51c.903.485 1.92.741 2.943.741 1.023 0 2.04-.256 2.943-.741l5.807-3.127v3.243L39 66.188l-8.75-6.563v-3.242l5.807 3.126zm.96 8.316l-7.268 6.359L26.914 61.9l1.772-.322 8.33 6.247zM39 69.411l6.672 5.839H32.328L39 69.411zm1.984-1.586l8.33-6.248 1.772.323-2.835 12.284-7.267-6.359zM55.25 41.29c0 2.873-.916 5.59-2.5 7.858v-6.492A16.367 16.367 0 0055.25 34v7.29zM57.75 29c0 .889-.341 1.718-.894 2.383-.07-.083-.127-.173-.205-.25l-1.401-1.4V25.48c1.451.517 2.5 1.892 2.5 3.52zm-32.5-5.07a8.7 8.7 0 014.837-7.826l.898-.449a15.941 15.941 0 007.741 6.583l2.502 1 1.3-7.798 3.224.537a8.323 8.323 0 014.545 2.34 8.314 8.314 0 012.453 5.92V34c0 1.904-.41 3.794-1.172 5.532l-.823-1.85a8.313 8.313 0 00-7.589-4.932 8.34 8.34 0 00-3.713.876l-.453.227-.451-.227a8.312 8.312 0 00-11.304 4.055l-.823 1.852A13.812 13.812 0 0125.25 34V23.93zm-2.5 1.55v4.253l-1.401 1.4c-.078.078-.135.167-.205.25-.553-.665-.894-1.494-.894-2.383 0-1.628 1.049-3.003 2.5-3.52zm0 15.81V34c0 3.051.881 6.078 2.5 8.656v6.492c-1.584-2.268-2.5-4.986-2.5-7.858zm-9.957 23.176l11.658-2.12L27.43 75.25H2.814a12.226 12.226 0 019.979-10.784zM50.57 75.25l2.978-12.904 11.658 2.12a12.227 12.227 0 019.98 10.784H50.57z"/><path d="M31.5 26.5c.689 0 1.25.56 1.25 1.25h2.5A3.755 3.755 0 0031.5 24a3.755 3.755 0 00-3.75 3.75h2.5c0-.69.561-1.25 1.25-1.25zm15 0c.689 0 1.25.56 1.25 1.25h2.5A3.755 3.755 0 0046.5 24a3.755 3.755 0 00-3.75 3.75h2.5c0-.69.561-1.25 1.25-1.25z"/></svg><svg viewBox="0 0 502.664 502.664" id="icon" xmlns="http://www.w3.org/2000/svg"><path d="M153.821 358.226L0 274.337v-46.463l153.821-83.414v54.574L46.636 250.523l107.185 53.431v54.272zm26.273 29.358L282.103 115.08h32.227L212.084 387.584h-31.99zm168.749-29.358v-54.272l107.164-52.999-107.164-52.59v-53.927l153.821 83.522v46.183l-153.821 84.083z"/></svg><svg viewBox="0 0 36 36" id="location" xmlns="http://www.w3.org/2000/svg"><rect width="36" height="36" rx="18"/><path d="M23.907 13.48c-.064-.24-.194-.496-.29-.72C22.464 9.992 19.947 9 17.916 9c-2.721 0-5.717 1.824-6.117 5.584v.768c0 .032.01.32.026.464.225 1.792 1.639 3.696 2.695 5.488 1.136 1.92 2.314 3.808 3.482 5.696.72-1.232 1.438-2.48 2.142-3.68.192-.352.414-.704.606-1.04.128-.224.373-.448.484-.656 1.136-2.08 2.965-4.176 2.965-6.24v-.848c0-.224-.277-1.008-.293-1.056zm-5.941 3.856c-.8 0-1.675-.4-2.107-1.504-.064-.176-.06-.528-.06-.56v-.496c0-1.408 1.196-2.048 2.236-2.048 1.28 0 2.27 1.024 2.27 2.304 0 1.28-1.059 2.304-2.34 2.304z"/></svg><svg viewBox="0 0 43 45" id="logo" xmlns="http://www.w3.org/2000/svg"><path d="M37.187 7.314c-8.837 0-16 7.163-16 16 8.836 0 16-7.164 16-16z"/><path d="M37.187 37.316c-8.837 0-16-7.164-16-16 8.836 0 16 7.163 16 16zm-16.001-14c-8.836 0-16-7.164-16-16 8.837 0 16 7.163 16 16z"/><path d="M21.186 21.314c-8.836 0-16 7.163-16 16 8.837 0 16-7.164 16-16z"/><path d="M42.813 22.629c-6.249-6.248-16.38-6.248-22.628 0 6.249 6.248 16.38 6.248 22.628 0z"/><path d="M42.813 22.629c-6.249-6.248-16.38-6.248-22.628 0 6.249 6.248 16.38 6.248 22.628 0z"/><path d="M22.814 22.63c-6.248-6.25-16.38-6.25-22.627 0 6.248 6.248 16.379 6.248 22.627 0z"/><path d="M21.5 22.627C15.252 16.38 15.252 6.248 21.5 0c6.249 6.248 6.249 16.379 0 22.627z"/><path d="M21.5 22.002c-6.248 6.248-6.248 16.379 0 22.627 6.249-6.248 6.249-16.379 0-22.627z"/></svg><svg viewBox="0 0 36 36" id="phone" xmlns="http://www.w3.org/2000/svg"><rect width="36" height="36" rx="18"/><path d="M24.138 20.26c-.65-.642-1.462-.642-2.109 0-.493.49-.986.978-1.47 1.476-.133.136-.245.165-.407.074-.319-.174-.659-.315-.965-.505-1.43-.9-2.627-2.055-3.688-3.357-.526-.646-.994-1.338-1.322-2.117-.066-.157-.054-.26.075-.39.493-.476.974-.965 1.458-1.454.676-.68.676-1.475-.004-2.159-.385-.389-.77-.77-1.156-1.16-.398-.397-.791-.8-1.193-1.193-.65-.634-1.463-.634-2.11.004-.496.489-.973.99-1.478 1.471-.469.443-.705.986-.755 1.62-.078 1.032.174 2.006.53 2.954.73 1.965 1.84 3.709 3.187 5.308a19.719 19.719 0 006.53 5.11c1.144.555 2.33.981 3.618 1.052.886.05 1.657-.174 2.274-.866.423-.473.9-.903 1.347-1.355.663-.671.667-1.483.009-2.146-.788-.792-1.58-1.58-2.37-2.366z"/></svg></svg>